<svg id="图层_1" data-name="图层 1" xmlns="http://www.w3.org/2000/svg" viewBox="0 0 489.77 398.48"><defs><style>.cls-1{fill:#120f0f;}.cls-2{fill:#f8102b;}.cls-3{fill:#ac0c11;}.cls-4{fill:#9e9cb1;}.cls-5{fill:#666265;}.cls-6{fill:#fff;}</style></defs><path class="cls-1" d="M-173.51,98.38c.13.46.26.92.38,1.38l.27.75c0,7.32.24,14.65,0,22-.1,3-.71,6-.35,9-.19.88-.45,1.76-.57,2.66q-2.39,16.88-4.74,33.75a247.25,247.25,0,0,1-6.74,26.23,6.56,6.56,0,0,0-.52,3.76c-2.49,8.12-4.45,16.42-8.81,23.86-1.67,2.84-2.95,5.91-4.44,8.85-.53,1-.9,2.06-.15,3.09,1.14,1.59,2,3.32,3.7,4.56A97.82,97.82,0,0,1-172.81,262c8.73,12.85,14.18,26.9,14.94,42.52,1.05,21.48-6.47,40-19.71,56.58-8.41,10.5-18.71,18.85-29.87,26.21-2.29,1.85-5.09,1-7.65,1.4-7.78,1.11-15.57,2.09-23.36,3.08-10.31,1.31-20.69,2.19-31,3.91a9.27,9.27,0,0,1-3.23.45c-3.8-.8-7.26-.74-10,2.56a3,3,0,0,1-1.52.59c-5.38,1.27-10.8,2-16.31.89-1.45-.28-3.73.34-2.56-2.61.26-.64-.53-.82-1.11-.82a2.74,2.74,0,0,1-1.76-.62c-5.39-4.2-11.77-5.59-18.33-6.59-7.19-1.11-14.44.06-21.65-1-8.77-1.23-17.63-1.79-26.41-2.92-11.4-1.47-22.85-2.71-34.14-4.91-3.63-.7-7.38-1.34-10.36-3.91a98.44,98.44,0,0,1-23.6-27.34c-13.34-22.91-15.5-46.75-5.41-71.48,3.21-7.87,7.88-14.88,12.88-21.69,2.56-3,2.73-2.52-.35-7.7-8.57-14.43-14.76-30-20.39-45.59-5.81-16.13-11.35-32.53-13-49.83,1.59-1,.91-2.46.6-3.65a75.45,75.45,0,0,1-2-18c-.07-6.24.3-12.47.76-18.66.67-8.91,2.85-17.41,11.19-22.66,4.77-3,9.74-3.41,14.76-.71a45.93,45.93,0,0,1,9.07,6.64c3.07,2.8,6.37,5.36,9.57,8a174.09,174.09,0,0,1,17.13,20.81c0,1.15.3,2.08,1.7,2.1l.08.09c-.31,1.18.36,1.64,1.37,1.84h0c.42,4.67,4,7.73,6.32,11.23,5.29,7.88,10.18,16,15.69,23.77,4.83,6.81,8.86,14.27,13.33,21.38,4.24,6.72,7.76,13.85,12.1,20.52,1.52,2.33,2.65,2.71,4.84,1.88a.6.6,0,0,1,.31-.15,8.36,8.36,0,0,0,3.26-.27,196.08,196.08,0,0,1,48.87-4.23c5.51.19,11,.64,16.44,1.22,1.77.19,3.23-.11,4.2-1.85,4.69-8.4,8.19-17.38,13.27-25.61,4.07-6.6,6.62-14.06,10.24-21a250.42,250.42,0,0,1,26.07-40.32c7.46-9.33,18-15.48,25.84-24.47,5.4-2.79,10.75-5.69,16.66-7.33,1.24.44,3-.77,3.78.67,1.48,2.78,3.82,5,4.65,8.25C-176,94.83-175.36,97-173.51,98.38Zm-7.8,35a47,47,0,0,1-.07-7.41,123.37,123.37,0,0,0-.56-26.89c-.57-4.72-4.28-6.44-8.5-4a115.93,115.93,0,0,0-26.82,21.73c-12.14,13.1-21.39,28.13-29.84,43.72-7.21,13.3-13.67,27-20.44,40.51-2.47,4.94-2.64,4.95,2.79,6.16,18.91,4.21,37.05,10.44,53.85,20.29,1.62.95,2.9,2.6,5,2.61.91,1.7,1.66,1.57,2.66,0,4.38-7,5-15.18,7.21-22.87,1.66-4.54,4.16-9,4.81-13.64,1.49-10.62,5.3-20.74,6.24-31.44a7.19,7.19,0,0,0,1.72-3.05,28.14,28.14,0,0,0,1.56-11C-181.87,143.17-180.7,138.3-181.31,133.38ZM-401.6,144.85c-7.74-10.64-14.64-21.92-23.72-31.55-5.83-6.19-11.1-13-18.9-17-5.22-2.7-7.71-2-10.91,3-4,6.25-5,13.25-5.53,20.42-1.07,15.54,1.78,30.65,5.1,45.68a346.47,346.47,0,0,0,9.73,34.24,451.46,451.46,0,0,0,18.52,45.77c1.15,2.52,1.84,2.37,3.63.71A152.4,152.4,0,0,1-372.26,215c3-1.11,6.16-1.84,9-3.39,1-.53,1.57-.79,1-2.41-2.85-8.56-8.4-15.61-12.67-23.37-2.37-6.82-7.49-12.05-10.57-18.49-3.67-7.66-9.73-13.74-14.38-20.77A11.29,11.29,0,0,0-401.6,144.85Zm221.85,157.08a50.2,50.2,0,0,0-17-36.88,45.41,45.41,0,0,0-62.57,1.42,52.64,52.64,0,0,0-2.28,72.28A45.58,45.58,0,0,0-210.43,351C-191.94,343.54-179.8,324.9-179.75,301.93Zm-238.18-3c-.14,14.52,2.41,23.57,7.35,32,15.52,26.46,50.39,31.22,72.39,9.87,18.67-18.11,20.44-49.56,3.91-69.78-14.62-17.89-38-23.16-57.6-12.35C-409.41,268.38-417.26,284.08-417.93,299Zm126.36,24.55a16.14,16.14,0,0,0-2.2,0c-3.7.51-7.51.11-11.14,1.12-5.47,1.52-6.83,6.63-2.86,10.47.53.51,1.06,1,1.62,1.48,7.89,6.41,17.82,5.08,22.44-3,2.72-4.75-.23-10-5.67-10.1C-290.11,323.51-290.84,323.52-291.57,323.52Z" transform="translate(545.03 -71.84)"/><path class="cls-2" d="M-178.51,167.86q2.35-16.87,4.74-33.75c.12-.9.38-1.78.57-2.66a14.79,14.79,0,0,0,4.58,5.94,26.75,26.75,0,0,1,6.51,8.1c8.13,14.42,21.05,23.55,35,31.32,10,5.55,19.87,11.27,30.44,15.74a240.9,240.9,0,0,0,35.25,11.94,14,14,0,0,1,3.58,1.31,4.91,4.91,0,0,1,0,8.68c-17.57,10.45-32.92,23.29-43.79,40.88-7.74,12.51-11.9,26.11-10.89,40.92,1.22,17.82,8.81,33,20.16,46.5a44.37,44.37,0,0,1,7.88,14.59,1.72,1.72,0,0,1-.84,2.43A13,13,0,0,1-90,362c-9.26,1.68-17.66,5.81-26.33,9.13-5,1.92-10,3.93-15,5.9-4.56.11-9.14.05-13.68.39-6.27.47-12.55.88-18.59,3A74.91,74.91,0,0,1-178,383.89c-6.22.88-12.44,1.88-18.69,2.5-3.57.36-7.09,1.4-10.73.93,11.16-7.36,21.46-15.71,29.87-26.21,13.24-16.54,20.76-35.1,19.71-56.58-.76-15.62-6.21-29.67-14.94-42.52a97.82,97.82,0,0,0-22.66-23.8c-1.67-1.24-2.56-3-3.7-4.56-.75-1-.38-2.05.15-3.09,1.49-2.94,2.77-6,4.44-8.85,4.36-7.44,6.32-15.74,8.81-23.86,3.43-7.51,5.06-15.54,7-23.5A14.25,14.25,0,0,0-178.51,167.86Z" transform="translate(545.03 -71.84)"/><path class="cls-2" d="M-201.62,91.22c-7.83,9-18.38,15.14-25.84,24.47A250.42,250.42,0,0,0-253.53,156c-3.62,6.9-6.17,14.36-10.24,21-5.08,8.23-8.58,17.21-13.27,25.61-1,1.74-2.43,2-4.2,1.85-5.46-.58-10.93-1-16.44-1.22a196.08,196.08,0,0,0-48.87,4.23,8.36,8.36,0,0,1-3.26.27c-3-5.81-6.65-11.18-10.05-16.72-14.21-23.25-28.74-46.28-45.06-68.13-3.46-4.63-7.05-9.15-10.66-13.67-1-1.23-1-2,.18-3.21a202.28,202.28,0,0,0,26-31.88c1.49-2.23,3.45-2.52,5.74-2.1A23,23,0,0,1-377,74.65,211.52,211.52,0,0,0-312,96.7a249.26,249.26,0,0,0,60.81,2.54,222.24,222.24,0,0,0,43.62-7.88A9.27,9.27,0,0,1-201.62,91.22Z" transform="translate(545.03 -71.84)"/><path class="cls-2" d="M-432.9,256.35c-5,6.81-9.67,13.82-12.88,21.69-10.09,24.73-7.93,48.57,5.41,71.48a98.44,98.44,0,0,0,23.6,27.34c-2.92.55-6,1.35-8.83.57-12.23-3.37-24.61-6.44-36.48-10.84-6.82-2.53-12.93-2.19-19.42-.3-3.88,1.14-5.63,3.63-5.71,7.71,0,1.73.29,3.49-.58,5.13-6.37-5.23-12.57-10.67-19.31-15.42a126.22,126.22,0,0,0-31.35-16.1c-5.52-1.92-6.43-4.28-4.28-9.66,2.7-6.76,7.18-12.52,10.61-18.87,7.73-14.31,15.57-28.64,19.46-44.51,6.66-27.21,1.89-52.18-16.4-74.06a131,131,0,0,0-14.68-14.84c-1.17-1-2.29-1.85.2-2.73a413.05,413.05,0,0,0,73-34,1.8,1.8,0,0,1,.53-.14c1.88,8.67,3.41,17.44,5.71,26A433.21,433.21,0,0,0-449,222C-444.3,233.8-439.26,245.38-432.9,256.35Z" transform="translate(545.03 -71.84)"/><path class="cls-3" d="M-487.79,379.13c.87-1.64.55-3.4.58-5.13.08-4.08,1.83-6.57,5.71-7.71,6.49-1.89,12.6-2.23,19.42.3,11.87,4.4,24.25,7.47,36.48,10.84,2.83.78,5.91,0,8.83-.57,3,2.57,6.73,3.21,10.36,3.91,11.29,2.2,22.74,3.44,34.14,4.91,8.78,1.13,17.64,1.69,26.41,2.92,7.21,1,14.46-.15,21.65,1,6.56,1,12.94,2.39,18.33,6.59a2.74,2.74,0,0,0,1.76.62c.58,0,1.37.18,1.11.82-1.17,3,1.11,2.33,2.56,2.61,5.51,1.08,10.93.38,16.31-.89a3,3,0,0,0,1.52-.59c2.72-3.3,6.18-3.36,10-2.56a9.27,9.27,0,0,0,3.23-.45c10.26-1.72,20.64-2.6,31-3.91,7.79-1,15.58-2,23.36-3.08,2.56-.36,5.36.45,7.65-1.4,3.64.47,7.16-.57,10.73-.93,6.25-.62,12.47-1.62,18.69-2.5a74.91,74.91,0,0,0,14.34-3.52c6-2.11,12.32-2.52,18.59-3,4.54-.34,9.12-.28,13.68-.39,0,.46.07,1.06.64,1,3.11-.24,3.34,2,3.77,4.17,1.29,6.6,3.78,13,3.88,19.8.06,4.57,0,9.16-.12,13.73-.11,3-2.31,4.16-4.88,4.71-5.67,1.23-11.46,1.28-17.21,1.37-12.54.2-25.09-.15-37.63.25-6.2.19-12.4.79-18.63.73-.4,0-.81.32-1.21.49-4-.66-8,0-12,.18a4.68,4.68,0,0,0-3.06-.89A42.16,42.16,0,0,0-229.07,424c-.86.23-2.13-.31-2.55,1.05-9.84-.55-19.7-.66-29.48-2-.8-.11-1.74-.31-2.22.6a1.75,1.75,0,0,0,.85,2.35c2,1.24,3.16,3.28,4.66,5,3.75,4.25,7.58,8.38,10,13.68,1.07,2.34,1.93,5,4.07,6.75.66.54,1.09,1.72,2.21,1.26s.48-1.44.6-2.21c.25-1.68.47-3.36.76-5.39,2.59,2.51,3.47,5.41,4,8.47q1.42,8.37,2.83,16.74h-10.46c-1.16-3.17-1.9-6.59-3.57-9.46-4.82-8.3-9.84-16.49-15.41-24.32-1.9-2.68-3.87-5.36-7-6.77a30.8,30.8,0,0,0-14.1-2.92c-2.06.08-2.5.47-1.83,2.53,2,6.16,4,12.33,5.56,18.61,1.82,7.33,1.84,15,3.86,22.33l-2.49,0c.09-4.57-1.66-8.73-2.85-13-2.42-8.71-3.54-17.7-5.21-26.56-.42-2.22-1.23-2.67-3.5-2.9-4.18-.43-8.88,2.14-12.57-1.87-.37-.4-1.41-.28-2.13-.24-1.44.08-2.88.27-4.32.41a44.6,44.6,0,0,1,4.51-9.36,24.3,24.3,0,0,0,2-3.59,2.3,2.3,0,0,0-.29-2.58c-.8-.84-1.57,0-2.39.05-4.23.42-7.54,3.12-11.44,4.33a16.14,16.14,0,0,0-5.88,2.88,101.79,101.79,0,0,0-14,14.59c-4.65,5.94-7.66,12.88-12,19-1.86,2.57-3.07,5.65-6.05,8.07.86-3.81,1.56-7.08,2.33-10.34.21-.89.7-1.74-.23-2.5,2.14-2.68,2.54-5.73.15-8.14a5.19,5.19,0,0,1-1.61-4.52c.12-2.42-1.06-3.73-3.52-3.95s-4.88-.77-7.32-.75c-3.55,0-6.69-2-10.19-1.82a17.9,17.9,0,0,1-8-1.29c-4-1.71-8.18-1.21-12.33-1.07a84.87,84.87,0,0,1-19.68-3.19c-7.77-2.25-15.65-2.52-23.62-2.82-7.74-.29-15.6.15-23.09-2.58A26.22,26.22,0,0,1-476.91,403c-1.93-3.84-3.54-7.84-6.49-11.06-2.64-2.89-2.85-6.63-3.68-10.16C-487.28,380.88-487.55,380-487.79,379.13Zm212,35.76a11.57,11.57,0,0,0-5.69.72c-4.64,1.88-9.16,4.08-14.2,4.75a2.13,2.13,0,0,0-2.14,2.57,12.07,12.07,0,0,1-.38,2.41c-.08.61-.45,1.36.23,1.76s1.35-.12,1.71-.56c2.45-3.05,6.2-3.92,9.49-5.35,5-2.18,9.89-4.86,15.5-5.34.54-.05,1.25-.12,1.13-.84s-.77-.64-1.32-.44C-272.77,415.07-274.15,414.79-275.76,414.89Z" transform="translate(545.03 -71.84)"/><path class="cls-1" d="M-233.37,470.3q-1.41-8.37-2.83-16.74c-.52-3.06-1.4-6-4-8.47-.29,2-.51,3.71-.76,5.39-.12.77.37,1.81-.6,2.21s-1.55-.72-2.21-1.26c-2.14-1.76-3-4.41-4.07-6.75-2.4-5.3-6.23-9.43-10-13.68-1.5-1.7-2.62-3.74-4.66-5a1.75,1.75,0,0,1-.85-2.35c.48-.91,1.42-.71,2.22-.6,9.78,1.35,19.64,1.46,29.48,2,5.68.17,11.26-.82,16.85-1.65,4-.21,8-.84,12-.18,1.64,2.71,1.24,5.91,2.13,8.85,2.93,9.65,6.13,19.23,8.35,29.09.69,3.08,2.54,5.81,3.07,9.11Z" transform="translate(545.03 -71.84)"/><path class="cls-1" d="M-395.75,425.11c4.15-.14,8.33-.64,12.33,1.07a17.9,17.9,0,0,0,8,1.29c3.5-.16,6.64,1.86,10.19,1.82,2.44,0,4.88.53,7.32.75s3.64,1.53,3.52,3.95a5.19,5.19,0,0,0,1.61,4.52c2.39,2.41,2,5.46-.15,8.14a14.26,14.26,0,0,0-3.67,6.31c-1.48,5.78-3.61,11.4-4.5,17.34h-53.82c3.74-8.3,6.66-16.73,11-24.51,3-5.34,5.2-11,7.59-16.63C-395.7,427.83-395.92,426.46-395.75,425.11Z" transform="translate(545.03 -71.84)"/><path class="cls-2" d="M-361.06,470.3c.89-5.94,3-11.56,4.5-17.34a14.26,14.26,0,0,1,3.67-6.31c.93.76.44,1.61.23,2.5-.77,3.26-1.47,6.53-2.33,10.34,3-2.42,4.19-5.5,6.05-8.07,4.37-6.08,7.38-13,12-19a101.79,101.79,0,0,1,14-14.59A16.14,16.14,0,0,1-317,415c3.9-1.21,7.21-3.91,11.44-4.33.82-.08,1.59-.89,2.39-.05a2.3,2.3,0,0,1,.29,2.58,24.3,24.3,0,0,1-2,3.59,44.6,44.6,0,0,0-4.51,9.36c-1.9,3.39-2.91,7.13-4.25,10.74-.57.23-.6.66-.47,1.17l-.26.9c-2.28,2.2-3.54,5-4.8,7.84-3.39,7.57-5.06,15.72-7.81,23.5Z" transform="translate(545.03 -71.84)"/><path class="cls-1" d="M-313.66,436.88c1.34-3.61,2.35-7.35,4.25-10.74,1.44-.14,2.88-.33,4.32-.41.72,0,1.76-.16,2.13.24,3.69,4,8.39,1.44,12.57,1.87,2.27.23,3.08.68,3.5,2.9,1.67,8.86,2.79,17.85,5.21,26.56,1.19,4.29,2.94,8.45,2.85,13l-44.45,0c.55-5.1,2.42-9.88,4-14.67,1.84-5.51,3.85-10.94,4.87-16.68.09-.3.18-.6.26-.9A1.2,1.2,0,0,0-313.66,436.88Z" transform="translate(545.03 -71.84)"/><path class="cls-2" d="M-276.34,470.29c-2-7.32-2-15-3.86-22.33-1.55-6.28-3.57-12.45-5.56-18.61-.67-2.06-.23-2.45,1.83-2.53a30.8,30.8,0,0,1,14.1,2.92c3.15,1.41,5.12,4.09,7,6.77,5.57,7.83,10.59,16,15.41,24.32,1.67,2.87,2.41,6.29,3.57,9.46Z" transform="translate(545.03 -71.84)"/><path class="cls-4" d="M-432.9,256.35c-6.36-11-11.4-22.55-16.07-34.31a433.21,433.21,0,0,1-15.37-47.2c-2.3-8.56-3.83-17.33-5.71-26,.13-.71.56-1.52.35-2.11-.89-2.47-.27-4.84.23-7.24.73.79.72,1.82,1,2.79.95,3.6-.05,7.52,1.83,10.95,1.68,17.3,7.22,33.7,13,49.83,5.63,15.62,11.82,31.16,20.39,45.59C-430.17,253.83-430.34,253.37-432.9,256.35Z" transform="translate(545.03 -71.84)"/><path class="cls-5" d="M-466.67,153.23c-1.88-3.43-.88-7.35-1.83-10.95-.25-1-.24-2-1-2.79,0-9.33-.71-18.68.43-28a37.16,37.16,0,0,1,11.47-23.11c3.61-3.44,7.88-4.55,12.4-2.94,9.74,3.47,16.78,10.39,22.49,18.8-3.2-2.67-6.5-5.23-9.57-8a45.93,45.93,0,0,0-9.07-6.64c-5-2.7-10-2.29-14.76.71C-464.42,95.54-466.6,104-467.27,113c-.46,6.19-.83,12.42-.76,18.66a75.45,75.45,0,0,0,2,18C-465.76,150.77-465.08,152.25-466.67,153.23Z" transform="translate(545.03 -71.84)"/><path class="cls-5" d="M-350.12,207.86c-2.19.83-3.32.45-4.84-1.88-4.34-6.67-7.86-13.8-12.1-20.52-4.47-7.11-8.5-14.57-13.33-21.38-5.51-7.76-10.4-15.89-15.69-23.77-2.35-3.5-5.9-6.56-6.32-11.23,2.39,1.77,3.95,4.3,5.48,6.71,11.71,18.46,24.55,36.19,35.66,55,2.94,5,5.89,9.94,8.77,14.94A3.69,3.69,0,0,0-350.12,207.86Z" transform="translate(545.03 -71.84)"/><path class="cls-3" d="M-314.39,439c-1,5.74-3,11.17-4.87,16.68-1.6,4.79-3.47,9.57-4,14.67H-327c2.75-7.78,4.42-15.93,7.81-23.5C-317.93,444-316.67,441.15-314.39,439Z" transform="translate(545.03 -71.84)"/><path class="cls-5" d="M-173.51,98.38c-1.85-1.4-2.5-3.55-3-5.57-.83-3.21-3.17-5.47-4.65-8.25-.76-1.44-2.54-.23-3.78-.67,1.07-.47,2.13-1,3.22-1.41a2.2,2.2,0,0,1,2.71.63A22.24,22.24,0,0,1-173.51,98.38Z" transform="translate(545.03 -71.84)"/><path class="cls-5" d="M-403.85,127.16c-1.4,0-1.68-1-1.7-2.1A2.16,2.16,0,0,1-403.85,127.16Z" transform="translate(545.03 -71.84)"/><path class="cls-5" d="M-402.4,129.09c-1-.2-1.68-.66-1.37-1.84A1.69,1.69,0,0,1-402.4,129.09Z" transform="translate(545.03 -71.84)"/><path class="cls-5" d="M-172.86,100.51l-.27-.75A.53.53,0,0,1-172.86,100.51Z" transform="translate(545.03 -71.84)"/><path class="cls-4" d="M-374.9,185.81c4.27,7.76,9.82,14.81,12.67,23.37.54,1.62-.07,1.88-1,2.41-2.84,1.55-6,2.28-9,3.39a152.4,152.4,0,0,0-51.42,31.11c-1.79,1.66-2.48,1.81-3.63-.71a451.46,451.46,0,0,1-18.52-45.77,346.47,346.47,0,0,1-9.73-34.24c-3.32-15-6.17-30.14-5.1-45.68.49-7.17,1.53-14.17,5.53-20.42,3.2-5,5.69-5.66,10.91-3,7.8,4,13.07,10.8,18.9,17,9.08,9.63,16,20.91,23.72,31.55-.33,2,.87,3.54,2.06,4.84,2.43,2.65,4,5.87,6,8.81,5.48,8.16,10.61,16.57,15.89,24.87C-377,184.45-376.32,185.56-374.9,185.81Z" transform="translate(545.03 -71.84)"/><path class="cls-4" d="M-205.88,230.11c-2.12,0-3.4-1.66-5-2.61-16.8-9.85-34.94-16.08-53.85-20.29-5.43-1.21-5.26-1.22-2.79-6.16,6.77-13.52,13.23-27.21,20.44-40.51,8.45-15.59,17.7-30.62,29.84-43.72a115.93,115.93,0,0,1,26.82-21.73c4.22-2.45,7.93-.73,8.5,4a123.37,123.37,0,0,1,.56,26.89,47,47,0,0,0,.07,7.41,1.22,1.22,0,0,0-.74,1.05c-.92,6.83-2,13.64-2.67,20.49-.21,2.35-1.39,4.77-.24,7.2-.94,10.7-4.75,20.82-6.24,31.44-.65,4.68-3.15,9.1-4.81,13.64-1,.05-1.19.88-1.6,1.61-.92,1.64-.86,3.51-1.4,5.23C-200.76,219.63-203.66,224.73-205.88,230.11Z" transform="translate(545.03 -71.84)"/><path class="cls-6" d="M-179.75,301.93c-.05,23-12.19,41.61-30.68,49.05a45.58,45.58,0,0,1-51.17-12.23,52.64,52.64,0,0,1,2.28-72.28,45.41,45.41,0,0,1,62.57-1.42A50.2,50.2,0,0,1-179.75,301.93Zm-30.9,2.13a69.77,69.77,0,0,0-3.76-20.34,24.5,24.5,0,0,0-6.75-10.51c-3.78-3.47-7.64-3.67-11.55-.4a21.16,21.16,0,0,0-6,7.75c-7.17,16.52-5.75,32.95,1,49.11,2.6,6.22,11,8.44,16.05,4.76a17.64,17.64,0,0,0,6.74-8.8A89.31,89.31,0,0,0-210.65,304.06Z" transform="translate(545.03 -71.84)"/><path class="cls-6" d="M-417.93,299c.67-14.89,8.52-30.59,26.05-40.27,19.57-10.81,43-5.54,57.6,12.35,16.53,20.22,14.76,51.67-3.91,69.78-22,21.35-56.87,16.59-72.39-9.87C-415.52,322.54-418.07,313.49-417.93,299Zm64.21,4.44c-.8-7.56-2-15.27-5-22.52a19.43,19.43,0,0,0-7.58-9.21,6.84,6.84,0,0,0-7.76-.1,20.09,20.09,0,0,0-8.69,11,87.19,87.19,0,0,0-3.09,11.67c-2.47,12.26.14,23.92,4.83,35.09,3.37,8.05,12.7,9.18,18.73,2.84a18,18,0,0,0,4.2-6.71A102.3,102.3,0,0,0-353.72,303.41Z" transform="translate(545.03 -71.84)"/><path class="cls-3" d="M-291.57,323.52c.73,0,1.46,0,2.19,0,5.44.1,8.39,5.35,5.67,10.1-4.62,8.06-14.55,9.39-22.44,3-.56-.46-1.09-1-1.62-1.48-4-3.84-2.61-8.95,2.86-10.47,3.63-1,7.44-.61,11.14-1.12A16.14,16.14,0,0,1-291.57,323.52Z" transform="translate(545.03 -71.84)"/><path class="cls-5" d="M-374.9,185.81c-1.42-.25-2.1-1.36-2.78-2.44-5.28-8.3-10.41-16.71-15.89-24.87-2-2.94-3.54-6.16-6-8.81-1.19-1.3-2.39-2.8-2.06-4.84a11.29,11.29,0,0,1,1.75,1.7c4.65,7,10.71,13.11,14.38,20.77C-382.39,173.76-377.27,179-374.9,185.81Z" transform="translate(545.03 -71.84)"/><path class="cls-5" d="M-185,162.12c-1.15-2.43,0-4.85.24-7.2.63-6.85,1.75-13.66,2.67-20.49a1.22,1.22,0,0,1,.74-1.05c.61,4.92-.56,9.79-.37,14.69a28.14,28.14,0,0,1-1.56,11A7.19,7.19,0,0,1-185,162.12Z" transform="translate(545.03 -71.84)"/><path class="cls-5" d="M-205.88,230.11c2.22-5.38,5.12-10.48,6.87-16.07.54-1.72.48-3.59,1.4-5.23.41-.73.57-1.56,1.6-1.61-2.2,7.69-2.83,15.86-7.21,22.87C-204.22,231.68-205,231.81-205.88,230.11Z" transform="translate(545.03 -71.84)"/><path class="cls-5" d="M-178.51,167.86a14.25,14.25,0,0,1-.3,6.49c-1.9,8-3.53,16-7,23.5a6.56,6.56,0,0,1,.52-3.76A247.25,247.25,0,0,0-178.51,167.86Z" transform="translate(545.03 -71.84)"/><path class="cls-2" d="M-275.76,414.89c1.61-.1,3,.18,4.33-.32.55-.2,1.21-.26,1.32.44s-.59.79-1.13.84c-5.61.48-10.51,3.16-15.5,5.34-3.29,1.43-7,2.3-9.49,5.35-.36.44-1.09.92-1.71.56s-.31-1.15-.23-1.76a12.07,12.07,0,0,0,.38-2.41,2.13,2.13,0,0,1,2.14-2.57c5-.67,9.56-2.87,14.2-4.75A11.57,11.57,0,0,1-275.76,414.89Z" transform="translate(545.03 -71.84)"/><path class="cls-2" d="M-214.77,423.43c-5.59.83-11.17,1.82-16.85,1.65.42-1.36,1.69-.82,2.55-1.05a42.16,42.16,0,0,1,11.24-1.49A4.68,4.68,0,0,1-214.77,423.43Z" transform="translate(545.03 -71.84)"/><path class="cls-3" d="M-313.66,436.88a1.2,1.2,0,0,1-.47,1.17C-314.26,437.54-314.23,437.11-313.66,436.88Z" transform="translate(545.03 -71.84)"/><path class="cls-1" d="M-210.65,304.06a89.31,89.31,0,0,1-4.27,21.57,17.64,17.64,0,0,1-6.74,8.8c-5,3.68-13.45,1.46-16.05-4.76-6.78-16.16-8.2-32.59-1-49.11a21.16,21.16,0,0,1,6-7.75c3.91-3.27,7.77-3.07,11.55.4a24.5,24.5,0,0,1,6.75,10.51A69.77,69.77,0,0,1-210.65,304.06Z" transform="translate(545.03 -71.84)"/><path class="cls-1" d="M-353.72,303.41a102.3,102.3,0,0,1-4.37,22,18,18,0,0,1-4.2,6.71c-6,6.34-15.36,5.21-18.73-2.84-4.69-11.17-7.3-22.83-4.83-35.09a87.19,87.19,0,0,1,3.09-11.67,20.09,20.09,0,0,1,8.69-11,6.84,6.84,0,0,1,7.76.1,19.43,19.43,0,0,1,7.58,9.21C-355.69,288.14-354.52,295.85-353.72,303.41Z" transform="translate(545.03 -71.84)"/></svg>